<svg xmlns="http://www.w3.org/2000/svg" xmlns:xlink="http://www.w3.org/1999/xlink" width="500" zoomAndPan="magnify" viewBox="0 0 375 374.999991" height="500" preserveAspectRatio="xMidYMid meet" version="1.0"><defs><clipPath id="b9d8c5021c"><path d="M 40.550781 40.550781 L 334.550781 40.550781 L 334.550781 334.550781 L 40.550781 334.550781 Z M 40.550781 40.550781 " clip-rule="nonzero"/></clipPath></defs><path fill="#cccccc" d="M 235.601562 128.382812 C 232.644531 106.0625 250.734375 74.550781 211.855469 69.925781 C 205.777344 69.203125 187.113281 69.804688 190.035156 79.847656 C 191.265625 84.078125 186.457031 88.25 186.390625 93.429688 C 186.222656 105.898438 180.082031 107.863281 180.449219 114.15625 C 180.597656 116.785156 184.585938 115.105469 185.488281 116.109375 C 186.179688 116.878906 185.0625 117.824219 185.113281 120.21875 C 185.128906 120.945312 185.589844 122.4375 185.445312 123.519531 C 185.113281 125.953125 182.410156 128.503906 183.828125 129.507812 C 187.882812 132.382812 196.851562 128.359375 199.46875 136.988281 C 200.339844 139.851562 198.757812 141.90625 195.902344 145.859375 C 210.238281 138.351562 212.632812 127.136719 212.632812 127.136719 C 211.203125 141.347656 191.636719 152.183594 191.636719 152.183594 C 207.324219 158.6875 212.035156 169.722656 212.035156 169.722656 C 205.960938 161.058594 195.457031 157.40625 189.140625 155.9375 L 189.078125 156.027344 C 182.378906 154.839844 171.917969 154.667969 161.671875 161.335938 C 155.417969 165.40625 149.734375 171.117188 139.800781 171.078125 C 139.800781 171.078125 151.425781 169.230469 159.40625 160.480469 C 153.4375 158.476562 137.839844 150.859375 121.019531 166.191406 C 116.21875 175.929688 109.265625 176.574219 109.265625 176.574219 C 116.816406 173.785156 125.800781 154.898438 120.574219 129.832031 C 120.574219 129.832031 119.933594 126.347656 121.199219 123.683594 C 118.546875 125.605469 116.882812 128.222656 116.882812 128.222656 C 119.480469 120.6875 122.808594 120.832031 125.695312 120.738281 C 140.191406 120.257812 134.796875 121.308594 141.707031 112.03125 C 145.566406 106.84375 133.84375 100.679688 129.117188 99.417969 C 125.902344 98.5625 119.339844 105.308594 116.128906 108.050781 C 111.988281 111.589844 109.488281 120.898438 105.332031 129.488281 C 99.253906 142.039062 86.632812 166.136719 96.933594 184.664062 C 98.414062 187.328125 102.9375 186.566406 107.789062 190.210938 C 113.5 194.507812 138.882812 199.902344 152.679688 192.65625 C 152.679688 192.65625 167.457031 192.632812 176.707031 182.378906 C 176.707031 182.378906 171.289062 192.019531 155.71875 194.609375 C 160.03125 198.089844 168.003906 203.847656 177.335938 207.371094 C 171.226562 222.378906 184.648438 237.335938 185.601562 252.03125 C 189.675781 245.777344 193.519531 236.910156 195.554688 224.480469 C 195.554688 224.480469 197.027344 240.730469 188.292969 258.425781 C 176.027344 283.273438 179.035156 308.304688 179.035156 308.304688 C 195.324219 253.984375 263.488281 227.65625 268.683594 186.101562 C 272.515625 155.445312 238.027344 146.6875 235.601562 128.382812 " fill-opacity="1" fill-rule="nonzero"/><g clip-path="url(#b9d8c5021c)"><path fill="#cccccc" d="M 187.550781 315.792969 C 116.726562 315.792969 59.3125 258.378906 59.3125 187.550781 C 59.3125 116.726562 116.726562 59.3125 187.550781 59.3125 C 258.378906 59.3125 315.792969 116.726562 315.792969 187.550781 C 315.792969 258.378906 258.378906 315.792969 187.550781 315.792969 Z M 187.550781 40.542969 C 106.359375 40.542969 40.542969 106.363281 40.542969 187.550781 C 40.542969 268.742188 106.359375 334.5625 187.550781 334.5625 C 268.742188 334.5625 334.5625 268.742188 334.5625 187.550781 C 334.5625 106.363281 268.742188 40.542969 187.550781 40.542969 " fill-opacity="1" fill-rule="nonzero"/></g></svg>